<?xml version="1.0" encoding="utf-8"?>
<!-- Generator: Adobe Illustrator 17.1.0, SVG Export Plug-In . SVG Version: 6.00 Build 0)  -->
<!DOCTYPE svg PUBLIC "-//W3C//DTD SVG 1.1 Tiny//EN" "http://www.w3.org/Graphics/SVG/1.1/DTD/svg11-tiny.dtd">
<svg version="1.1" baseProfile="tiny" id="图层_1"
	 xmlns="http://www.w3.org/2000/svg" xmlns:xlink="http://www.w3.org/1999/xlink" x="0px" y="0px" viewBox="2 2 421.2 421.2"
	 xml:space="preserve">
<g>
	<path fill="#FFFFFF" stroke="#000000" stroke-width="2.8346" d="M421.8,212.6c0,115.5-93.7,209.2-209.2,209.2S3.4,328.1,3.4,212.6
		C3.3,97.1,97,3.4,212.5,3.4C328.1,3.4,421.8,97.1,421.8,212.6z"/>
	<path fill="#84C327" d="M221.4,80.1c73,4.9,128.7,68.5,123.8,141.5c-4.9,73-68.5,128.7-141.5,123.8S74.9,276.9,79.8,203.8
		S148.3,75.1,221.4,80.1 M225.6,17.6C118.1,10.4,24.6,92.2,17.5,199.6s74.6,200.9,182.1,208.1s200.9-74.6,208.1-182.1
		S333,24.8,225.6,17.6"/>
	<polygon points="126,295.5 126,138.1 180.1,138.1 212.6,245.4 244.8,138.1 299.1,138.1 299.1,295.5 265.5,295.5 265.5,171.6 
		229.9,295.5 195,295.5 159.6,171.6 159.6,295.5 	"/>
	<path d="M69,240.7l-3.4,0.7l-0.5-1.9c-0.2-1.3-0.6-2-1-2.3c-0.4-0.2-1.2-0.2-2.4,0l-19.1,4.4l27.3,3.7l0.7,2.9l-23.5,14.9l19.6-4.6
		c1.2-0.2,1.9-0.6,2.2-1c0.2-0.4,0.2-1.2-0.1-2.5l-0.4-1.8l3.4-0.7l3.1,13.8l-3.4,0.7l-0.4-1.6c-0.2-1.3-0.6-2-1.1-2.3
		c-0.4-0.2-1.2-0.2-2.4,0l-17.4,4c-1.2,0.2-1.9,0.6-2.2,1c-0.2,0.4-0.2,1.2,0.1,2.5l0.4,1.6l-3.4,0.7l-3.1-13.7l17.6-11L39,245.3
		l-3-13.2l3.4-0.7l0.4,1.7c0.4,1.3,0.6,2,1.1,2.4c0.4,0.2,1.2,0.2,2.4,0l17.4-4c1.2-0.2,1.9-0.6,2.2-1s0.2-1.2-0.1-2.5l-0.4-1.7
		l3.4-0.7L69,240.7z M55.1,188.7l-10.9,2.4l9.8,5L55.1,188.7z M65.4,210.2l-3.4-0.5l0.1-1c0.1-1.1,0.1-2-0.2-2.6s-1-1.2-2-1.8
		l-22.5-11.6l0.8-6.2l24.9-5.6c1.4-0.4,2.4-0.7,2.6-1.1c0.4-0.4,0.6-1.1,0.7-2.2l0.1-0.8l3.4,0.5l-2.2,15.5l-3.4-0.5l0.4-2.4
		c0.1-1,0.1-1.7,0-2s-0.4-0.6-0.8-0.6c-0.1,0-0.4,0-0.6,0s-0.5,0.1-1,0.2l-3.7,0.8l-1.4,9.8l3.6,1.8c0.1,0,0.2,0.1,0.5,0.2
		c0.4,0.2,0.7,0.4,0.8,0.4c0.4,0,0.7,0,0.8-0.4c0.2-0.2,0.4-1,0.5-1.9l0.4-2.3l3.4,0.5L65.4,210.2z M86.9,138.8l-3,0.2
		c0.4,1.7,0.4,3.4,0.1,4.9c-0.2,1.6-0.7,3.1-1.6,4.7c-1,1.8-2.2,3.4-3.7,4.6c-1.4,1.2-3.2,2.2-5,2.8c-2,0.6-4.1,0.8-6.2,0.5
		c-2.2-0.2-4.2-1-6.2-2c-2-1.1-3.8-2.5-5.2-4.1c-1.4-1.7-2.4-3.5-3-5.5c-0.6-1.9-0.7-3.8-0.6-5.8c0.2-1.9,0.8-3.7,1.8-5.6
		c0.8-1.6,1.8-2.8,2.9-3.8c1.2-1,2.5-1.8,4.1-2.4l-1.7-2.4L61,122l10.4,5.5l-1.7,3.1c-2.8-0.8-5.2-0.8-7.3-0.1c-2.2,0.7-3.7,2-4.8,4
		c-1.3,2.4-1.3,4.8-0.1,7.2c1.2,2.4,3.5,4.6,6.8,6.4c3.4,1.8,6.4,2.5,9,2c2.6-0.4,4.6-1.9,6-4.4c1-1.8,1.3-3.5,1-5s-1.2-2.6-2.6-3.5
		l-1.6-0.8c-1-0.5-1.6-0.7-2-0.5c-0.4,0.1-1,1-1.8,2.4l-1,1.7l-3-1.6l7.6-14.2l3,1.6l-1,1.7c-0.5,1-0.7,1.6-0.5,2
		c0.1,0.4,0.8,1,1.8,1.4l8.9,4.8L86.9,138.8z M100.3,118.9l-2.5-2.4l1.3-1.4c1-1,1.4-1.7,1.4-2.2s-0.5-1.1-1.3-1.9L86.4,98.7
		c-0.8-0.8-1.6-1.3-2-1.3c-0.5,0-1.2,0.5-2,1.4l-1.3,1.4l-2.4-2.4L90,86.1l2.4,2.4l-1.3,1.4c-1,1-1.4,1.7-1.4,2.2
		c0,0.5,0.5,1.1,1.3,1.9l12.8,12.4c0.8,0.8,1.6,1.3,2,1.3c0.5,0,1.2-0.5,2-1.4l1.3-1.4l2.5,2.4L100.3,118.9z M130.8,83.5l1.3-6.5
		l7.3,3.1c0.2,0.1,0.5,0.2,0.7,0.4c0.2,0.1,0.4,0.4,0.5,0.5c0.1,0.2,0.1,0.5-0.1,0.8c-0.2,0.2-0.7,0.6-1.3,1l-1.8,1l1.7,3l15.2-8.4
		l-1.7-3l-1.2,0.6c-1,0.6-1.9,0.8-2.5,0.8c-0.7,0-1.9-0.4-3.7-1.1l-11.4-4.7l2.3-9.6v-0.1c0.7-2.9,1.6-4.7,2.5-5.2l1.4-0.8l-1.7-3
		l-12.5,6.8l1.7,3l1.6-0.8c0.6-0.4,1.1-0.5,1.4-0.5c0.4,0,0.6,0,0.7,0.2c0.1,0.1,0.1,0.4,0.1,0.6s0,0.6-0.1,0.8l-1.8,7.1l-5.8-2.3
		c-0.4-0.1-0.7-0.2-0.8-0.4c-0.2-0.1-0.4-0.2-0.5-0.5c-0.1-0.2-0.1-0.5,0-0.7c0.1-0.2,0.4-0.5,0.7-0.7l1.8-1l-1.7-3l-14,7.8l1.7,3
		l1.3-0.7c0.8-0.5,1.6-0.7,2.3-0.7c0.7,0,1.7,0.2,2.8,0.7l10.6,4.4L125,88.5c-0.2,1.2-0.6,2-0.8,2.5c-0.4,0.5-1,1-1.7,1.3l-1.3,0.7
		l1.7,3l13.8-7.7l-1.7-3l-1.8,1.1c-0.7,0.4-1.3,0.6-1.6,0.6c-0.4,0-0.6-0.1-0.8-0.5c-0.1-0.2-0.1-0.6-0.1-1.1
		C130.6,84.7,130.7,84.1,130.8,83.5 M276.5,81.5l6-10.9l3.1,1.7c-1.1,2.9-1.2,5.4-0.5,7.7s2.4,4.1,4.8,5.4c1.8,1,3.2,1.4,4.6,1.3
		c1.2-0.1,2.2-0.7,2.8-1.8c0.6-1,0.6-2,0.2-3c-0.4-1.1-1.2-2.2-2.6-3.4l-3.7-3.4c-2.6-2.4-4.3-4.7-5-6.6c-0.7-2-0.5-4,0.7-6
		c1.4-2.5,3.4-4,5.9-4.6c2.5-0.6,5.3,0,8.2,1.6c1.4,0.8,2.6,1.8,3.7,2.9c1,1.1,1.8,2.5,2.5,4.1l2.4-1.2l2.4,1.3l-5.5,10.1l-3-1.7
		c0.8-2.6,1-5,0.2-7.2c-0.7-2.2-2.2-3.8-4.3-5c-1.6-0.8-3-1.3-4.2-1.2s-2.2,0.7-2.6,1.8c-0.5,1-0.6,1.8-0.2,2.6
		c0.4,0.8,1.1,1.9,2.3,2.9l4.7,4.2c2.5,2.2,4.1,4.4,4.7,6.5c0.6,2.2,0.4,4.3-0.8,6.4c-1.4,2.5-3.5,4.1-6.1,4.6
		c-2.8,0.6-5.5,0-8.5-1.6c-1.4-0.8-2.8-1.9-4-3.2c-1.2-1.3-2.2-3-3-4.9l-2.3,2L276.5,81.5z M312.3,104.8l2.6-2.3l1.2,1.3
		c0.8,1,1.6,1.6,2,1.6c0.5,0,1.1-0.4,2-1.2l13.4-11.8c1-0.8,1.4-1.4,1.4-1.9s-0.4-1.2-1.3-2.2l-1.2-1.3l2.6-2.3L345.9,97l-2.5,2.3
		l-1.4-1.6c-0.8-1.1-1.6-1.6-2-1.6c-0.5,0-1.2,0.4-2,1.2l-5,4.4l8.6,9.8l5-4.4c1-0.8,1.4-1.4,1.4-1.9s-0.4-1.2-1.3-2.2l-1.4-1.6
		l2.6-2.3l10.7,12.2l-2.6,2.3l-1.2-1.3c-0.8-1.1-1.6-1.6-2-1.6c-0.5,0-1.2,0.4-2,1.1l-13.4,11.8c-1,0.8-1.4,1.4-1.4,1.9
		c0,0.5,0.4,1.2,1.3,2.2l1.2,1.3l-2.6,2.3l-10.7-12.2l2.6-2.3l1.4,1.6c0.8,1,1.6,1.6,2,1.6c0.5,0,1.1-0.4,2-1.2l5.6-4.9l-8.6-9.8
		l-5.6,4.9c-1,0.8-1.4,1.4-1.4,1.9c0,0.5,0.4,1.2,1.3,2.3l1.4,1.6l-2.6,2.3L312.3,104.8z M342.9,146.9l3.1-1.4l0.8,1.8
		c0.6,1.2,1.1,1.9,1.4,2c0.5,0.1,1.2,0,2.3-0.6l16.2-7.6c1.1-0.5,1.8-1,1.9-1.4c0.1-0.5,0-1.2-0.6-2.5l-0.8-1.8l3.1-1.4l7,14.9
		l-3.1,1.4l-0.8-1.8c-0.6-1.2-1.1-1.9-1.4-2c-0.5-0.1-1.2,0-2.3,0.6l-16.2,7.6c-1.1,0.5-1.8,1-1.9,1.4c-0.1,0.5,0.1,1.2,0.6,2.5
		l0.8,1.8l-3.1,1.4L342.9,146.9z M355.1,178.5l12.4-1.7l0.5,3.5c-2.9,0.8-5,2.3-6.4,4.3c-1.3,1.9-1.8,4.3-1.4,7.1
		c0.2,2,0.8,3.5,1.7,4.4c0.8,1,1.8,1.3,3.1,1.2c1.2-0.1,2-0.7,2.6-1.6c0.6-1,1-2.3,1.2-4.1l0.5-5c0.4-3.6,1.1-6.2,2.3-8
		c1.2-1.7,2.9-2.8,5.3-3.1c2.9-0.4,5.3,0.2,7.2,2c2,1.7,3.2,4.2,3.7,7.6c0.2,1.7,0.2,3.2-0.1,4.7s-0.8,3-1.7,4.4l2.4,1.3l0.4,2.6
		l-11.4,1.6l-0.5-3.4c2.6-0.8,4.6-2.3,5.9-4.1c1.2-1.8,1.7-4,1.4-6.5c-0.2-1.8-0.8-3.1-1.6-4.1c-0.8-0.8-1.8-1.2-3-1.1
		c-1.1,0.1-1.8,0.6-2.3,1.4c-0.5,0.7-0.8,1.9-1,3.6l-0.5,6.2c-0.2,3.4-1.1,5.9-2.4,7.7c-1.3,1.8-3.2,2.9-5.6,3.2
		c-2.9,0.4-5.3-0.4-7.4-2.2c-2-1.8-3.4-4.4-3.8-7.7c-0.2-1.7-0.1-3.4,0.2-5s1.1-3.5,2-5.4l-3-0.6L355.1,178.5z M359.4,221.4l3.4,0.6
		l-0.2,1.7c-0.2,1.3-0.2,2.2,0,2.5s1,0.6,2.2,0.8l17.5,3.1c1.2,0.2,2,0.2,2.4-0.1c0.4-0.2,0.7-1.1,1-2.4l0.4-1.7l3.4,0.6l-2.9,16
		l-3.4-0.6l0.4-2c0.2-1.3,0.2-2.2,0-2.5s-1-0.7-2.2-0.8l-6.6-1.2l-2.3,13l6.6,1.2c1.2,0.2,2,0.2,2.4-0.1c0.4-0.2,0.7-1.1,1-2.4
		l0.4-2l3.4,0.6l-2.9,16.1l-3.4-0.6l0.4-1.7c0.2-1.3,0.2-2.2,0-2.5s-1-0.7-2.2-0.8l-17.5-3.1c-1.2-0.2-2-0.2-2.4,0.1
		c-0.4,0.2-0.7,1.1-1,2.4l-0.4,1.7l-3.4-0.6l2.9-16.1l3.4,0.6l-0.4,2.2c-0.2,1.3-0.2,2.2,0,2.5s1,0.7,2.2,0.8l7.4,1.3l2.3-12.8
		l-7.4-1.3c-1.2-0.2-2-0.1-2.4,0.1c-0.4,0.2-0.7,1.1-1,2.4l-0.4,2l-3.4-0.6L359.4,221.4z M349.3,293.6l11,1.7l-7.4-8.2L349.3,293.6z
		 M347.4,269.9l3,1.7l-0.5,0.8c-0.6,1-0.8,1.8-0.7,2.5c0.1,0.7,0.5,1.4,1.3,2.4l16.8,19l-3.1,5.5l-25.3-3.7c-1.4-0.2-2.4-0.2-2.9,0
		c-0.5,0.2-1,0.8-1.4,1.8l-0.5,0.8l-3-1.7l7.6-13.7l3,1.7l-1.2,2.2c-0.5,0.8-0.7,1.4-0.7,1.9c0,0.4,0.1,0.7,0.6,0.8
		c0.1,0.1,0.4,0.1,0.5,0.2c0.2,0,0.5,0.1,1,0.1l3.7,0.6l4.8-8.8l-2.8-3c-0.1-0.1-0.2-0.2-0.4-0.4c-0.2-0.4-0.5-0.6-0.7-0.6
		c-0.4-0.2-0.7-0.2-1,0c-0.2,0.2-0.6,0.7-1.2,1.7l-1.1,2l-3-1.7L347.4,269.9z"/>
	<path d="M83,340.1c0,0,36.9,15.6,105.7,17.6c68.8,2,134-8,150.9-16l3.2-2c0,0,0.5,20.5,5.9,33.7l1.4,3.3c0,0-37.6,12-101,15.7
		c-63.4,3.8-118-5.5-136.9-7.9s-36.6-7-36.6-7s4.6-17.6,4.9-24.8c0.4-7.2,1.1-13.4,1.1-13.4L83,340.1z"/>
	<g>
		<path fill="#FFFFFF" d="M128.4,364.1c0.2-1.9-0.9-3.1-3.3-3.5c-1.9-0.3-3.2,0.2-3.4,1.5c-0.2,1,0.2,1.5,1.5,2.1
			c2.6,1.2,5.6,2.5,7.8,4c2.2,1.5,3.1,3.7,2.7,6.3c-0.8,4.7-5.2,7-11.4,5.9c-6.5-1.1-9.8-4.9-9-10.2l6.1,1.1c-0.5,2.8,1.2,4,4,4.5
			c2.3,0.4,3.6-0.2,3.9-1.8c0.2-1.2-0.4-2-2.7-3c-1.6-0.7-4-2-5.5-2.8c-2.9-1.7-4.1-3.8-3.6-6.6c0.8-4.4,4.9-6.6,10.7-5.6
			c5.8,1,8.6,4.2,7.9,9.1L128.4,364.1z"/>
		<path fill="#FFFFFF" d="M142,382.8l-6.2-0.8l3.1-23.5l6.2,0.8L142,382.8z"/>
		<path fill="#FFFFFF" d="M149,359.9l6.2,0.6l7.2,15.7l1.1-15l6,0.5l-2.1,23.6l-6-0.5l-7.3-15.9l-1.2,15.2l-5.9-0.5L149,359.9z"/>
		<path fill="#FFFFFF" d="M194.6,377.2c-0.1,1.8-0.4,2.5-1.3,4.2c-2,3.7-5.3,5.4-10,5.3c-7.4-0.3-11.7-5.8-11.4-12.9
			c0.3-7.3,5.4-12.2,12.4-11.9c5.3,0.2,10.1,3.7,10.3,9.3l-6.1-0.2c-0.4-2.5-2-3.8-4.6-3.9c-3.4-0.1-5.7,2.7-5.8,7.1
			c-0.2,4.3,1.9,7.2,5.3,7.3c2.7,0.1,4.4-1.4,4.9-4.4L194.6,377.2z"/>
		<path fill="#FFFFFF" d="M216.6,367.7l-12.8,0l0,4.1l11.7,0l0,4.8l-11.7,0l0,4.6l13.1,0l0,5.2l-19.3,0l0-23.7l19,0L216.6,367.7z"/>
		<path fill="#FFFFFF" d="M248.2,385.3l-18.5,0.9l0-0.1c-0.3-6.4,3.7-8.2,9-12.1c1.4-1,3-2.1,2.9-4c-0.1-1.8-1.3-2.8-3.3-2.8
			c-2.9,0.1-3.5,2.5-3.4,4.8l-5.4,0.2c-0.3-5.7,2.4-9.7,8.8-9.9c5.2-0.2,8.7,2.4,8.9,6.9c0.2,4.3-2.6,6.1-5.8,8.3
			c-2.1,1.5-3,2-4.3,3.4l10.9-0.5L248.2,385.3z"/>
		<path fill="#FFFFFF" d="M268.3,372.3c0.6,7.4-2.6,12-8.6,12.5c-5.8,0.4-9.5-3.7-10.1-11.1c-0.5-6.2,1.7-12.1,8.6-12.6
			C263.9,360.7,267.7,364.9,268.3,372.3z M255.1,373.3c0.2,2.8,0.7,7.2,4.5,6.9c3.7-0.3,3.5-5.1,3.3-7.8c-0.2-3-0.9-7.1-4.4-6.8
			C255.7,365.9,254.7,368.3,255.1,373.3z"/>
		<path fill="#FFFFFF" d="M288.6,370.2c0.8,7.4-2.2,12.1-8.2,12.7c-5.7,0.6-9.7-3.4-10.4-10.8c-0.7-6.1,1.3-12.1,8.2-12.9
			C283.9,358.7,287.9,362.8,288.6,370.2z M275.5,371.6c0.3,2.8,0.9,7.2,4.7,6.8c3.7-0.4,3.3-5.2,3-7.9c-0.3-3-1.1-7.1-4.6-6.7
			C275.9,364.1,274.9,366.6,275.5,371.6z"/>
		<path fill="#FFFFFF" d="M290.8,364.4c-0.7-4.6,3.8-7,7.7-7.6c4-0.6,8.6,0.4,9.3,5c0.4,2.4-0.6,4.3-2.8,5.3c3,0.3,4.8,1.9,5.2,4.8
			c0.6,4.4-2.5,7.6-8.3,8.5c-5.9,0.9-9.9-1.3-10.5-5.6c-0.4-3.1,1.1-5,3.6-6.1C292.7,368.1,291.1,366.8,290.8,364.4z M295.8,364
			c0.2,1.6,1.8,2.5,4,2.2c2.1-0.3,3.3-1.6,3.1-3.3c-0.2-1.7-1.7-2.5-4-2.2C296.8,361.1,295.6,362.3,295.8,364z M296.8,373.5
			c0.3,2,2,3,4.4,2.7c2.4-0.3,3.7-1.8,3.4-3.8c-0.3-2-2-3-4.4-2.7C297.8,370.1,296.5,371.5,296.8,373.5z"/>
	</g>
	<path d="M235.2,45.1c-0.4,8.6-2.4,15.6-7.6,21.4c-3.9,4.4-8.8,6.7-14.7,7.1c-7.2,0.4-12.5-2.8-17.1-7.9c-4-4.5-5.9-9.9-6.3-16
		c-0.5-7.5,1.3-14.7,3.6-21.7c0.2-0.5,0.4-1.1,0.6-1.6c1-2.6,2.3-3.3,5-3.1c0.8,0.1,1,0.4,1.2,1c0.5,2.2,0.5,4.4-0.5,6.5
		c-2.4,5.2-3.2,10.8-2.9,16.5c0.3,5.9,2,11.3,7,15c6.1,4.6,15,3.5,20.1-2.4c2.8-3.2,4.2-6.9,4.9-11c0.9-5.7-0.1-11.2-1.9-16.6
		c-0.6-1.9-1.3-3.9-0.6-6c0.3-1,0.9-1.9,1.4-2.8c0.3-0.6,0.7-0.6,1.3-0.3c2,1.1,3.4,2.8,3.9,5c0.9,3.8,1.7,7.7,2.3,11.6
		C235.1,41.9,235.1,44,235.2,45.1z M196.5,27.2c-0.5,0.6-1.1,1-1.1,1.3c0.1,0.4,0.6,0.8,0.9,1.2c0.3-0.3,0.9-0.6,1-1
		C197.3,28.2,196.9,27.8,196.5,27.2z M212.6,70c-0.6-0.5-1-1-1.3-0.9c-0.4,0.1-0.7,0.7-1,1c0.3,0.3,0.7,0.8,1.1,0.9
		C211.7,70.9,212.1,70.4,212.6,70z M230.3,29.5c-0.6-0.5-0.9-1-1.3-1c-0.3,0-0.9,0.5-0.9,0.9c0,0.4,0.5,1,0.8,1
		C229.2,30.4,229.6,29.9,230.3,29.5z"/>
	<path d="M197.6,110c2.7-0.2,5.4-0.4,8.1-0.5c1.6-0.1,3.3-0.2,4.9-0.3c1.3-0.1,2.2-0.7,1.1-2.1c-1.1-1.5-1.2-3.3-1.2-5.1
		c0-1.8-0.1-3.7-2.3-4.7c-1.7-0.8-0.9-2.6-0.9-4c0-0.5,0.9-1.2,1.6-1.4c2.7-1,5.5-1,8.2-0.1c1.6,0.5,2.4,4.2,1,4.9
		c-2.3,1.1-1.9,3.1-2,4.8c-0.1,2.1,0.1,4.2-1,6.2c-0.6,1.1,0.7,1.5,1.7,1.5c3.8,0,7.5,0,11.3,0c0.7,0,1.3,0,2.1,0.4
		c-0.3,0.2-0.6,0.5-0.8,0.4c-2-0.3-3.1,0.9-4.4,2.2c-0.6,0.6-1.5,1-2.4,1.1c-1.8,0.2-3.7,0.2-5.5,0.3c-1.6,0.1-2.2,0.8-1.9,2.4
		c0.2,1.4,0.5,2.9,0.7,4.3c0.3,1.8,0.6,3.6-0.6,5.3c-0.3,0.4,0,1.5,0.3,1.9c1.1,1.4,1.5,2.5,0.3,4.2c-0.9,1.3-1.6,1.4,0.7,5.5
		c1-0.8,1.9-1.6,2.9-2.2c0.5-0.3,1.2-0.3,1.7-0.5c-0.2,0.6-0.2,1.2-0.5,1.7c-0.9,1.3-2,2.4-1.6,4.3c0.2,1-0.5,2.3-0.9,3.7
		c0.5,0.7,1.9,1,1.5,2.8c-0.2,0.9-0.1,1.5-0.9,2c-0.4,0.3-0.7,1-0.7,1.5c0,3.5-0.2,7,0.1,10.5c0.2,2,1.2,3.9,1.9,5.8
		c0.1,0.4,0.5,0.8,0.5,1.2c0,2.7,1.9,3.4,3.9,4.4c3,1.5,5.8,3.4,8.4,5.4c1.2,0.9,2,2.5,2.6,3.9c1.6,4,2.6,4.7,7,3.9
		c0.2,0,0.4,0,0.7-0.1c0,0.6,0,1.1,0,1.6c-2.4,0.3-4.6,0.8-6.8,1.6c-3.6,1.2-5.9,4.1-9.3,5.3c-5.2,1.9-10.6,1.9-16,1.8
		c-13-0.3-23.6-5.9-33.1-14.1c-5.6-4.8-8.3-11.4-9.8-18.4c-1.7-8.3-2.9-16.7-2.3-25.2c0.3-3.8,1.1-7.7,2.5-11.3
		c3.4-8.3,12.1-11.5,20.6-8.6c2.3,0.8,4.2,2.2,5.6,3.6c1.3,1.3,3.9,1.8,3.9,4.4c0,0.2,0.2,0.4,0.3,0.5c1.8,1.2,3.7,2.3,5.4,3.7
		c1.6,1.4,2.9,3.3,4.5,4.9c0.6,0.6,1.4,1.1,2.2,1.6c0.4-1,1.1-2,1.3-3c0.1-0.8-0.1-1.9-0.6-2.5c-1.3-1.5-0.9-2.7,0.2-3.9
		c0.8-0.9,0.9-1.7,0.1-2.7c-1.3-1.6-0.5-3.3-0.3-4.9c0.1-1.5,0.5-2.9,0.6-4.3c0.1-1.3-0.5-2.1-1.9-2c-1,0-2-0.1-3.1,0
		c-2.6,0.1-4.8-0.2-6.7-2.4c-0.6-0.7-2-0.7-3.1-1C197.6,110.2,197.6,110.1,197.6,110z M230.6,189.1c-2,0.2-3.7,0.5-5.3,0.6
		c-1.9,0-3.8-0.3-5.7-0.3c-2.9,0.1-5.7,0.5-8.5,0.7c-0.9,0.1-1.8,0.1-2.7,0c-2.6-0.5-5.1-1.2-7.6-1.5c-5.6-0.7-10.7-2.2-14.3-7
		c-1.6-2.1-1.5-3.8,0.2-5.9c2.1-2.6,4.9-4.3,8.2-4.9c3.2-0.6,6.6-0.8,9.8-1.3c0.7-0.1,1.7-0.3,1.9-0.8c1.8-3.4,3.2-6.9,3-10.9
		c-0.1-1.8,0-3.7,0-5.5c0-1.4,0.4-3-1.4-3.7c-0.2-0.1-0.3-0.6-0.4-1c-0.2-1.6,0-2.9,1.6-3.2c-0.3-1.4-0.6-2.6-0.9-3.7
		c-0.2-0.6-0.2-1.4-0.6-1.8c-3.5-3.4-8.4-5.3-10.9-9.8c-0.1-0.2-0.5-0.3-0.8-0.4c-2.2-0.3-2.8-2.5-4.2-3.7c-1.4-1.2-2.4-2.9-3.9-3.8
		c-3.6-1.9-9.8-0.6-12.8,2.4c-3.1,3.2-5.1,7-5.7,11.4c-1.1,9.1,0.1,18.1,2.1,27.1c1.6,7.1,4.3,13.6,9.9,18.5
		c11.1,9.8,24.1,13.9,38.8,12.5C223.9,192.7,227.5,191.8,230.6,189.1z M207.3,185.2c-0.4-0.3-0.6-0.5-0.8-0.6
		c-4.5-2.1-3.9-6.1-2.1-9.5c0.5-1,0.6-2.2,0.9-3.5c-3,0.3-5.8,0.3-8.3,1c-2.6,0.7-5.2,1.7-7.4,3.2c-2.1,1.4-2,3.1-0.3,4.9
		c1,1,2.2,2,3.4,2.7C197.3,185.9,202.1,186.1,207.3,185.2z M221.9,185c2.5,0,4.6,0,6.7,0c0.1,0,0.1-0.1,0.2-0.1c0.4,0,0.9,0.1,1.3,0
		c1.1-0.1,2.4-0.1,3.3-0.6c0.4-0.2,0.2-2.1-0.3-2.8c-2.4-3.5-5.7-6-10.1-7.4C224.8,178,225.8,181.5,221.9,185z"/>
</g>
</svg>
